<?xml version="1.0" encoding="utf-8"?>
<!-- Generator: Adobe Illustrator 21.1.0, SVG Export Plug-In . SVG Version: 6.00 Build 0)  -->
<svg version="1.1" id="Layer_1" xmlns="http://www.w3.org/2000/svg" xmlns:xlink="http://www.w3.org/1999/xlink" x="0px" y="0px"
	 viewBox="0 0 34 34" style="enable-background:new 0 0 34 34;" xml:space="preserve">
<style type="text/css">
	.st0{fill:#FF716D;}
</style>
<g>
	<path class="st0" d="M20.6,12.6c0.2-0.9,0.4-1.7,0.5-2.6c0.8,0.1,1.9,0.5,2.3,0.8c-0.1,0.6-0.3,1.3-0.5,2.1c4.6,1,7.2,4.3,7.2,8.6
		c0,5.3-3.7,9.5-11,10.3c-0.5-0.5-1-1.6-1.2-2.3c6.1-0.2,10-3.2,10-8c0-3.3-2-5.9-5.5-6.6c-1.3,3.1-3.5,7-7.1,10.8
		c0.2,0.6,0.5,1.3,0.8,1.9c-0.4,0.4-1.2,1-1.9,1.2c-0.2-0.4-0.5-1-0.7-1.5c-1.6,1.3-3.2,2.2-5,2.2c-2.5,0-4.4-2.3-4.4-5.3
		c0-1.6,0.6-3.2,1.5-4.4c1.5-2.1,3.9-4,6.5-5.3c0.1-1.8,0.3-3.7,0.4-5.5c-0.7,0-1.4,0.1-2,0.1c-0.9,0-2.5,0-3.5-0.1
		C6.7,8.5,6.5,7.2,6.5,6.6C7.4,6.9,8.9,7,10.1,7h0c0.8,0,1.6,0,2.4-0.1C12.8,4.8,13,3.1,13,2.2c0.9,0,1.8,0.1,2.5,0.4
		c-0.2,0.9-0.4,2.4-0.6,4.2c3.3-0.3,6.5-0.9,9.3-1.7c0.2,0.6,0.3,1.7,0.3,2.2c-2.2,0.6-6.1,1.3-9.8,1.6c-0.2,1.5-0.3,3.1-0.4,4.7
		c2-0.7,4.1-1,5.8-1H20.6z M12.6,25c-0.5-2-0.7-4.2-0.7-6.7c0-0.5,0-1,0-1.5c-1.7,1-3.6,2.5-4.8,4.3c-0.6,1-0.9,2-0.9,3
		c0,1.5,0.8,3,2.2,3C9.7,27.2,10.9,26.6,12.6,25z M14.4,23.2c1.4-1.7,3.9-5,5.4-8.5c-2.1,0-4.1,0.5-5.8,1.2c0,1-0.1,2-0.1,2.9
		C14,20,14.1,21.5,14.4,23.2z"/>
</g>
</svg>
