<?xml version="1.0" encoding="utf-8"?>
<!-- Generator: Adobe Illustrator 21.1.0, SVG Export Plug-In . SVG Version: 6.00 Build 0)  -->
<svg version="1.1" id="Layer_1" xmlns="http://www.w3.org/2000/svg" xmlns:xlink="http://www.w3.org/1999/xlink" x="0px" y="0px"
	 viewBox="0 0 34 34" style="enable-background:new 0 0 34 34;" xml:space="preserve">
<style type="text/css">
	.st0{fill:#FF716D;}
</style>
<g>
	<path d="M14.7,28.9c-0.2-0.4-0.3-0.6-0.5-1.5c-1.5,0.9-3.7,2.1-5.8,2.1c-2.2,0-3.6-2-3.6-4.2c0-3.4,2.2-5.9,3.7-7.3
		c1.3-1.2,2.4-1.8,4.1-2.7c0-1.4,0-2.8,0.2-4.2c-0.9,0.1-1.2,0.1-1.6,0.1c-0.9,0-2.6-0.1-3.5-0.1L7.1,8.7C9,9,10.6,9.1,13,9
		c0.1-1.7,0.3-3,1-6.2l2.6,0.7c-0.7,2.3-1,4.2-1.2,5.1c3.3-0.4,6.4-1.1,9.5-2.3l-0.2,2.6c-4.6,1.1-6.1,1.5-9.6,1.9
		c-0.1,1.5-0.2,2.6-0.3,3.7c1-0.2,2.8-0.6,4.7-0.6c0.4,0,0.6,0,1,0.1c0.4-2,0.5-2.3,0.5-2.5l2.4,1.1c-0.3,0.8-0.3,1-0.5,1.8
		c1.4,0.5,3.1,1,4.7,2.9c1.1,1.3,1.6,2.9,1.6,4.6c0,4.2-3.1,6.6-5.2,7.7c-1.5,0.8-2.7,1.2-4.3,1.6l-2-2.2c2.6-0.4,5.1-0.9,7.1-2.9
		c1.5-1.5,1.9-3.1,1.9-4.4c0-3.8-3.4-4.9-4.6-5.3c-0.7,1.7-2.7,6.5-5.8,9.3c0.1,0.4,0.1,0.6,0.5,1.8L14.7,28.9z M12.7,17.4
		c-1.3,0.8-2.8,1.7-4.2,3.8c-0.5,0.9-1.3,2.3-1.3,3.8c0,1.5,1.1,2.1,2.3,2.1c1.8,0,3.4-1.3,4.2-1.9C13.3,23.3,12.8,21.1,12.7,17.4z
		 M19.9,16c-1.6,0-3.1,0-5.1,0.5c0.2,3.5,0.6,5.4,0.9,6.7C17.3,21.3,18.5,19.6,19.9,16z"/>
</g>
</svg>
