<?xml version="1.0" encoding="utf-8"?>
<!-- Generator: Adobe Illustrator 21.1.0, SVG Export Plug-In . SVG Version: 6.00 Build 0)  -->
<svg version="1.1" id="Layer_1" xmlns="http://www.w3.org/2000/svg" xmlns:xlink="http://www.w3.org/1999/xlink" x="0px" y="0px"
	 viewBox="0 0 34 34" style="enable-background:new 0 0 34 34;" xml:space="preserve">
<style type="text/css">
	.st0{fill:#FF716D;}
</style>
<g>
	<path class="st0" d="M20.9,21.2c-0.3-0.9-0.4-1-1.6-1h-6c-1,0-1.2,0.1-1.5,1l-1.4,4.2c-0.6,1.8-0.9,2.9-0.9,3.3
		c0,0.5,0.2,0.7,1.2,0.8l1.3,0.1c0.3,0.2,0.3,0.8-0.1,1c-1-0.1-2.3-0.1-4.2-0.1c-1.3,0-2.8,0.1-3.8,0.1c-0.2-0.2-0.3-0.8-0.1-1
		l1.3-0.1c1-0.1,1.8-0.5,2.4-2c0.7-1.8,1.8-4.4,3.5-8.9l4.1-10.8c0.6-1.4,0.8-2.2,0.7-2.8c1-0.3,1.6-1,2.1-1.5
		c0.2,0,0.5,0.1,0.6,0.4c0.5,1.8,1.2,3.6,1.8,5.4l5.5,16.1c1.2,3.4,1.7,4,3.4,4.2l1.1,0.1c0.3,0.2,0.2,0.8,0,1
		c-1.6-0.1-3-0.1-4.8-0.1c-1.9,0-3.4,0.1-4.6,0.1c-0.3-0.2-0.4-0.8-0.1-1l1.2-0.1c0.8-0.1,1.4-0.3,1.4-0.7c0-0.4-0.2-1.2-0.5-2.1
		L20.9,21.2z M13,17.6c-0.3,0.9-0.3,1,0.8,1h4.9c1.2,0,1.2-0.2,0.9-1.2l-2.2-6.5c-0.3-1-0.7-2-0.9-2.5h-0.1c-0.1,0.2-0.5,1.2-1,2.4
		L13,17.6z"/>
</g>
</svg>
