<?xml version="1.0" encoding="utf-8"?>
<!-- Generator: Adobe Illustrator 21.1.0, SVG Export Plug-In . SVG Version: 6.00 Build 0)  -->
<svg version="1.1" id="Layer_1" xmlns="http://www.w3.org/2000/svg" xmlns:xlink="http://www.w3.org/1999/xlink" x="0px" y="0px"
	 viewBox="0 0 34 34" style="enable-background:new 0 0 34 34;" xml:space="preserve">
<style type="text/css">
	.st0{fill:#FF716D;}
</style>
<g>
	<path class="st0" d="M21.1,11.6l2.3,0.8l-0.7,1.4c3.6,0.6,7.7,3.1,7.7,8.4c0,7-8,8.9-11.7,9.5c-0.2-0.8-0.4-1.3-1-2.3
		c2.6-0.1,6-1.1,7.7-2.3c1.9-1.4,2.6-3.4,2.6-5.1c0-3.2-2-5.8-6.2-6.4c-3,5.2-5.9,8.4-6.8,9.3c0.2,1.3,0.5,2.2,0.8,3l-2.3,0.8
		l-0.4-1.9c-1.4,1.3-4,3.7-6.2,3.7c-1.3,0-3.2-1.1-3.2-4.2c0-2.7,0.7-4.2,1.7-5.6c0.6-0.9,1.3-1.8,2.3-2.7c0.9-0.8,2-1.7,4.4-2.9
		c0-1.7,0.1-4,0.3-5.3C11,9.9,10.2,9.9,9.5,9.9c-1.7,0-2.8,0-4-0.1V7.5C7,7.7,8.2,7.8,10,7.8c0.7,0,1.6,0,2.5-0.1
		c0.2-1.7,0.6-4.1,0.9-5.3l2.5,0.5c-0.4,1.2-0.8,3.3-1.1,4.7c4.8-0.4,7.8-1.2,10.1-1.9l0,2.3c-3,0.9-6.4,1.4-10.4,1.7
		c-0.2,1.4-0.4,3.4-0.5,4.8c1.4-0.5,3.7-0.9,6.1-0.9L21.1,11.6z M12,17.3c-3.4,1.9-6.2,5-6.2,8.7c0,0.5,0,2.3,1.2,2.3
		c0.9,0,2.9-1,5.6-3.9C12.3,21.6,12.1,19.1,12,17.3z M14.6,22.3c1.2-1.4,2.7-3.3,4.7-6.8c-1.2,0-3.6,0.3-5.1,1
		C14.2,18.2,14.3,20.8,14.6,22.3z"/>
</g>
</svg>
