<?xml version="1.0" encoding="utf-8"?>
<!-- Generator: Adobe Illustrator 21.1.0, SVG Export Plug-In . SVG Version: 6.00 Build 0)  -->
<svg version="1.1" id="Layer_1" xmlns="http://www.w3.org/2000/svg" xmlns:xlink="http://www.w3.org/1999/xlink" x="0px" y="0px"
	 viewBox="0 0 34 34" style="enable-background:new 0 0 34 34;" xml:space="preserve">
<style type="text/css">
	.st0{fill:#FF716D;}
</style>
<g>
	<path d="M16.1,30.7c2.5-0.4,5.4-1,8.1-2.7c1.9-1.3,3.5-3.7,3.5-6.5c0-0.8-0.1-1.9-0.7-2.9c-1.3-2.4-3.6-3-5.3-3.4
		c-1.2,2.1-3,5.2-6.6,9.1c0.1,0.1,0.1,0.3,0.2,0.4l0.4,1c0.1,0.3,0.1,0.6,0.1,0.7c0,0.6-0.4,1-1,1c-0.8,0-1.2-1-1.5-1.6
		c-0.2,0.2-0.6,0.6-1.4,1.2c-1.4,1.1-3.2,2.5-4.6,2.5C4.5,29.6,4,26,4,25c0-4.3,3.2-8.2,8.5-9.9c0.1-1.4,0.1-2,0.3-3.6l0.2-1.3
		c-1.8,0.2-2.9,0.3-3.7,0.3c-1.3,0-1.8-0.2-2.3-0.7C6,8.6,5.6,7.7,5.3,7.1l0.5-0.3c1.4,1.8,1.9,2.1,3.5,2.1c0.1,0,1.5,0,3.9-0.4
		c0-0.1,0.1-0.4,0.1-0.4l0.3-1.9c0-0.1,0.1-0.8,0.1-1.4c0-1-0.4-1.1-2.3-1.4l0.1-0.6c3.2-0.1,5.2,1,5.2,1.4c0,0.2-0.6,1.1-0.7,1.3
		c-0.3,0.6-0.6,1.8-0.8,2.9c1.4-0.1,6.9-1.1,7.5-1.5c0.6-0.4,0.7-0.5,0.9-0.5c0.6,0,1.8,1,1.8,1.6c0,0.4-0.3,0.5-1.7,0.8l-5.7,0.9
		c-0.3,0.1-1.7,0.2-2.1,0.3l-1.2,0.1c-0.4,1.8-0.6,3.1-0.6,4.7c3.2-0.5,3.7-0.6,6.3-0.6c0-0.1,0.2-0.5,0.2-0.8
		c0-0.4-0.2-1.1-1.3-1.6l0.3-0.5c2.6,1,2.6,1.9,2.6,2.5c0,0.2,0,0.4,0,0.6c1.8,0.4,7.7,1.7,7.7,7.8c0,6.4-6.3,9.4-13.7,9.5
		L16.1,30.7z M5.9,24.2c0,1.6,0.7,3.3,1.8,3.3c1,0,3.9-1.8,5.3-3.3c-0.3-1.4-0.6-2.9-0.6-6.2c0-0.7,0-1.1,0.1-1.7
		C6.7,18.4,5.9,22.3,5.9,24.2z M14,17.2c0,1.4,0.1,4.2,0.6,5.4c1.6-1.6,4.4-5.5,5.4-7.6c-2.7,0-3.7,0.1-5.9,0.7
		C14.1,16.3,14,16.5,14,17.2z"/>
</g>
</svg>
