<?xml version="1.0" encoding="utf-8"?>
<!-- Generator: Adobe Illustrator 21.1.0, SVG Export Plug-In . SVG Version: 6.00 Build 0)  -->
<svg version="1.1" id="Layer_1" xmlns="http://www.w3.org/2000/svg" xmlns:xlink="http://www.w3.org/1999/xlink" x="0px" y="0px"
	 viewBox="0 0 34 34" style="enable-background:new 0 0 34 34;" xml:space="preserve">
<style type="text/css">
	.st0{fill:#FF716D;}
</style>
<g>
	<path class="st0" d="M22.4,20.8H11.6l-2.2,6h3.1c0.4,0,0.7,0.1,0.8,0.2c0.2,0.2,0.3,0.3,0.3,0.6c0,0.2-0.1,0.4-0.3,0.6
		c-0.2,0.2-0.4,0.2-0.8,0.2H6.4c-0.4,0-0.7-0.1-0.8-0.2c-0.2-0.2-0.3-0.4-0.3-0.6c0-0.2,0.1-0.4,0.3-0.6c0.2-0.1,0.4-0.2,0.8-0.2
		h1.3l7.2-19.6h-4.8C9.7,7.2,9.4,7.1,9.2,7C9.1,6.8,9,6.6,9,6.4c0-0.2,0.1-0.4,0.3-0.6c0.2-0.1,0.4-0.2,0.8-0.2h8.3l8,21.2h1.3
		c0.4,0,0.7,0.1,0.8,0.2c0.2,0.2,0.3,0.3,0.3,0.6c0,0.2-0.1,0.4-0.3,0.6c-0.2,0.2-0.4,0.2-0.8,0.2h-6.1c-0.4,0-0.7-0.1-0.9-0.2
		c-0.2-0.2-0.3-0.4-0.3-0.6c0-0.2,0.1-0.4,0.3-0.6c0.2-0.1,0.5-0.2,0.9-0.2h3.1L22.4,20.8z M21.7,19.1L17.2,7.2h-0.6l-4.4,11.9H21.7
		z"/>
</g>
</svg>
