<?xml version="1.0" encoding="utf-8"?>
<!-- Generator: Adobe Illustrator 21.1.0, SVG Export Plug-In . SVG Version: 6.00 Build 0)  -->
<svg version="1.1" id="Layer_1" xmlns="http://www.w3.org/2000/svg" xmlns:xlink="http://www.w3.org/1999/xlink" x="0px" y="0px"
	 viewBox="0 0 34 34" style="enable-background:new 0 0 34 34;" xml:space="preserve">
<style type="text/css">
	.st0{fill:#FF716D;}
</style>
<g>
	<path class="st0" d="M16.3,30.9c3.9-0.4,10.3-3,10.3-9.6c0-4.1-2.3-6.7-5.1-7.4c-0.6,3-3.3,7.4-5.9,10.4c0.3,1,0.6,1.7,0.9,2.4
		c0.2,0.7-0.4,1.2-1,1.2c-0.6,0-1.4-0.5-1.9-1.5c-1.6,1.3-3.7,2.5-5.4,2.5c-1.2,0-1.8-0.4-2.1-1.1c-0.4-0.8-1.4-1.9-1.4-3.3
		c0-3.3,3.5-7.9,8.5-10.1l0.3-4.2c-1,0.1-2.1,0.3-2.8,0.3c-1.1,0-2.3-1.2-2.7-1.7C7.8,8.3,7.6,7.9,7.6,7.6c0.1-0.1,0.2-0.2,0.3-0.2
		c0.6,0.5,1.6,0.9,2.9,0.9c0.6,0,1.7-0.1,2.7-0.2c0.1-0.8,0.1-1.5,0.1-2c0-1.3-0.1-1.8-1.1-2.2c-0.2-0.1-0.2-0.4-0.1-0.6
		c0.4-0.4,1-0.7,1.6-0.7c0.6,0,1.5,0.3,2,0.7c0.5,0.3,0.8,0.6,0.5,1.2c-0.1,0.2-0.3,0.6-0.4,1.2c1.2,0.4,1.7,0.5,1.7,0.5
		C18.5,6.2,19.7,6,20.2,6c0.8,0,1.4,0,1.4,0.7c0,0.5-0.5,1.1-1.3,1.5c-1.3,0.5-3.6,1.2-5,1.5c-0.1,1.1-0.2,2.2-0.3,2.9L15,13.7
		c1.5-0.5,3.1-0.7,4.7-0.8c0-1.1-0.3-1.7-0.8-2.1c0-0.1,0.1-0.3,0.2-0.4c0.6,0.1,1.1,0.3,1.5,0.6c0.2,0.2,0.5,0.4,0.7,0.8
		c0.2,0.3,0.3,0.5,0.3,1.1c4.3,0.6,7.8,4.1,7.8,8.5c0,6.8-6.6,9.9-13.1,9.9C16.2,31.3,16.2,31.1,16.3,30.9z M12.9,16
		c-2.8,1.7-6.1,5.7-6.1,8.4c0,1.2,0.4,1.8,1.4,1.8c1.5,0,3.2-1,4.7-2.1c-0.2-1-0.2-2.1-0.2-3.3C12.7,19.9,12.8,18,12.9,16z
		 M15.1,21.9c2.2-2.5,4.2-5.9,4.6-8.2c-1.7,0.1-3.3,0.6-4.7,1.3C14.8,17.2,14.8,19.8,15.1,21.9z M15.7,7.8c0.7-0.1,1.3-0.3,1.6-0.4
		c0.3-0.1,0.3-0.2,0.1-0.4c-0.2-0.2-0.8-0.6-1.4-1l-0.1,0.4C15.8,6.6,15.7,7.1,15.7,7.8z"/>
</g>
</svg>
