<?xml version="1.0" encoding="utf-8"?>
<!-- Generator: Adobe Illustrator 21.1.0, SVG Export Plug-In . SVG Version: 6.00 Build 0)  -->
<svg version="1.1" id="Layer_1" xmlns="http://www.w3.org/2000/svg" xmlns:xlink="http://www.w3.org/1999/xlink" x="0px" y="0px"
	 viewBox="0 0 34 34" style="enable-background:new 0 0 34 34;" xml:space="preserve">
<style type="text/css">
	.st0{fill:#FF716D;}
</style>
<g>
	<path class="st0" d="M10.5,20.7l-0.7,1.7c-1.4,3.2-1.6,3.8-1.6,4.8c0,1.4,1.1,2.4,2.6,2.4h0.3v0.9H3.2v-0.9l0.4,0
		c2.1-0.5,2.8-1.3,4.4-5.3l1-2.3l7.7-18.6h0.8l8.9,21.2c1.8,4.2,2,4.5,4.2,4.9h0.2v0.9H20.3v-0.9h0.3c2.2,0,3-0.3,3-1.4
		c0-0.5,0-0.5-0.9-2.6l-2-4.9H10.5z M15.6,8.5l-4.7,11.4h9.4L15.6,8.5z"/>
</g>
</svg>
