<?xml version="1.0" encoding="utf-8"?>
<!-- Generator: Adobe Illustrator 21.1.0, SVG Export Plug-In . SVG Version: 6.00 Build 0)  -->
<svg version="1.1" id="Layer_1" xmlns="http://www.w3.org/2000/svg" xmlns:xlink="http://www.w3.org/1999/xlink" x="0px" y="0px"
	 viewBox="0 0 34 34" style="enable-background:new 0 0 34 34;" xml:space="preserve">
<style type="text/css">
	.st0{fill:#FF716D;}
</style>
<g>
	<path class="st0" d="M18.7,10.6c1.2,0.3,2.3,0.7,3,1.5c0.3,0.4,0.4,0.7,0.3,1.2c5.2,0.6,8.1,4.4,8.1,8.2c0,6.4-6.8,9.4-15.6,9.6
		l-0.1-0.7c8.3-1.1,13.4-4.1,13.4-9.5c0-3.3-2.3-6.1-6.1-6.6c-1.2,2.7-3.7,6.2-6.5,9.1c0.4,1,0.8,1.7,0.8,2.4c0,0.6-0.4,0.9-1,0.9
		c-0.6,0-1.2-0.7-1.6-1.7c-2.4,2.1-4.9,3.2-7,3.2c-1.5,0-2.4-0.9-2.4-2.7c0-4.5,4.5-8.5,8.4-10.5c0.2-1.6,0.4-3.3,0.6-4.9
		c-1,0.1-2.1,0.2-3.1,0.2c-2.2,0-3.4-0.6-4.9-2.9L5.5,7c1.8,1.5,2.9,1.7,4.6,1.7c1.1,0,2.1-0.1,3.1-0.2c0.2-1.5,0.4-2.7,0.4-3.3
		S13.5,4.5,13,4.3c-0.6-0.2-1.3-0.3-2-0.4l0-0.7c0.6-0.1,1.3-0.3,1.7-0.3c1.9,0,3.7,1.2,3.7,1.8c0,0.7-0.6,0.8-0.9,2
		c-0.1,0.4-0.2,0.9-0.4,1.5c4.7-0.9,7.1-2.5,7.7-2.5c1.2,0,1.8,0.4,1.8,1c0,0.4-0.2,0.7-0.8,1c-1.4,0.6-5.4,1.8-9.1,2.4
		c-0.3,1.4-0.5,2.9-0.7,4.3c1.7-0.6,3.8-1.1,6.1-1.2c0.1-0.8-0.4-1.3-1.7-2L18.7,10.6z M12.8,23.4c-0.4-1.7-0.6-3.8-0.6-5.6
		c0-0.4,0-0.8,0-1.3c-3.9,2.4-6.4,6-6.4,8.4c0,0.9,0.3,1.3,1.2,1.3C8.7,26.2,10.9,24.9,12.8,23.4z M14.4,21.8
		c2.2-2.3,4.4-5.4,5.3-7.6c-2.1,0.1-3.9,0.5-5.9,1.5c0,0.6-0.1,1.2-0.1,1.7C13.8,19.3,14.1,20.7,14.4,21.8z"/>
</g>
</svg>
