<?xml version="1.0" encoding="utf-8"?>
<!-- Generator: Adobe Illustrator 21.1.0, SVG Export Plug-In . SVG Version: 6.00 Build 0)  -->
<svg version="1.1" id="Layer_1" xmlns="http://www.w3.org/2000/svg" xmlns:xlink="http://www.w3.org/1999/xlink" x="0px" y="0px"
	 viewBox="0 0 34 34" style="enable-background:new 0 0 34 34;" xml:space="preserve">
<style type="text/css">
	.st0{fill:#FF716D;}
</style>
<g>
	<path class="st0" d="M17.7,31.8v-0.3c1.1-0.2,3.8-0.8,7-3.6c1.8-1.6,2.7-3.3,2.7-5.8c0-4.4-3.3-5.8-5.1-6.2c-0.5,1.3-4,6.5-6.5,8.5
		c0.1,0.2,0.2,0.4,0.3,0.6c0.6,1.2,0.7,1.4,0.7,1.7c0,0.6-0.4,1.4-1.1,1.4c-0.8,0-1.4-0.9-1.9-2.1c-2.9,2.1-5.5,3.3-6.7,3.3
		c-1.1,0-1.4-0.6-1.9-1.5c-0.1-0.1-1-1.3-1.1-1.5c-0.2-0.3-0.3-0.7-0.3-1.1c0-2.6,3-6.8,8.6-9.2c0.1-1,0.2-2.5,0.6-5.1
		c-1.7,0.3-2.8,0.5-4.1,0.5c-1.4,0-3.2-0.3-4-2.3c0.4,0.2,1.6,0.6,3.7,0.6c1.4,0,3.2-0.3,4.7-0.6c0.1-0.3,0.3-1.4,0.3-1.6
		C13.8,7.3,14,6,14,5.2c0-1.4-0.9-2-2-2.6c0.3-0.2,0.5-0.3,1.5-0.3c2,0,3.7,1.5,3.7,2.2c0,0.4-0.1,0.5-0.8,2
		c-0.2,0.4-0.6,1.4-0.9,2.3c2.3-0.6,2.9-0.9,4.4-1.6c0.3-0.1,0.6-0.3,1-0.3c0.8,0,2.1,0.7,2.1,1.3c0,0.5-0.1,0.5-1.6,1
		c-1.6,0.5-4.8,1.2-6.5,1.5c-0.5,2.2-0.6,3.9-0.7,4.8c2.3-0.7,4.2-0.8,5.5-0.9c-0.1-0.5-0.2-0.7-0.8-1.9c1.7-0.2,3.1,1,3.4,2.1
		c3.6,0.6,7.9,2.8,7.9,7.7C30.2,27.8,24.6,31.7,17.7,31.8z M12.4,17.4c-5,2.8-6.7,7.1-6.7,8.4c0,1.1,0.5,1.7,1.5,1.7
		c0.9,0,3.4-0.8,6-2.9C12.9,23.2,12.3,20.7,12.4,17.4z M14.2,16.5c0,3.3,0.6,5.3,0.9,6.3c2.6-2.8,4.3-6.3,4.6-7.2
		C17.5,15.6,15.6,16,14.2,16.5z"/>
</g>
</svg>
