<?xml version="1.0" encoding="utf-8"?>
<!-- Generator: Adobe Illustrator 21.1.0, SVG Export Plug-In . SVG Version: 6.00 Build 0)  -->
<svg version="1.1" id="Layer_1" xmlns="http://www.w3.org/2000/svg" xmlns:xlink="http://www.w3.org/1999/xlink" x="0px" y="0px"
	 viewBox="0 0 34 34" style="enable-background:new 0 0 34 34;" xml:space="preserve">
<style type="text/css">
	.st0{fill:#FF716D;}
</style>
<g>
	<path class="st0" d="M23.7,13c4.2,1.1,6.7,4.2,6.7,8c0,4.8-3.2,9-11,10.3l-1.5-2.3c6.1-0.6,9.8-3.8,9.8-8.1c0-2.5-1.7-4.9-4.8-5.7
		c-1.9,4.8-4.6,8.5-7.4,10.9c0.3,1,0.5,1.9,0.8,2.7l-2.5,0.7c-0.2-0.6-0.4-1.2-0.5-1.9c-1.8,1.1-3.8,1.8-5.6,1.8c-2.3,0-4-1.4-4-4.2
		c0-4.3,3.8-8.8,8.4-10.9c0.1-1.7,0.2-3.4,0.4-5c-0.7,0-1.4,0-2,0c-1.5,0-4.1-0.1-5.4-0.2L4.8,6.6C6,6.8,8.9,7,10.4,7
		c0.7,0,1.5,0,2.2,0c0.1-1,0.2-1.9,0.3-2.6C12.9,3.8,13,3.2,13,2.8l2.9,0.1c-0.2,0.4-0.3,1.1-0.4,1.5c-0.1,0.7-0.3,1.6-0.4,2.5
		c4.2-0.2,8.3-0.6,11.8-1.4l0,2.6c-3.5,0.6-8,1-12.1,1.2c-0.1,1.3-0.2,2.7-0.3,4.1c1.9-0.6,3.9-0.9,5.6-0.9c0.4,0,0.8,0,1.2,0
		l0.1-0.3c0.1-0.5,0.3-1.4,0.3-1.9l2.7,0.7c-0.2,0.4-0.5,1.4-0.7,1.9L23.7,13z M11.9,16.8c-3.3,1.9-5.7,5.2-5.7,7.9
		c0,1.4,0.6,2,1.9,2c1.3,0,2.9-0.6,4.6-1.8c-0.5-2.4-0.8-5.1-0.8-7.6V16.8z M20,14.7c-2.2,0-4.1,0.5-5.7,1.1c0,0.4,0,0.9,0,1.3
		c0,2.1,0.2,4.2,0.6,6.1c2.2-2.1,4.2-4.8,5.7-8.5H20z"/>
</g>
</svg>
