<?xml version="1.0" encoding="utf-8"?>
<!-- Generator: Adobe Illustrator 21.1.0, SVG Export Plug-In . SVG Version: 6.00 Build 0)  -->
<svg version="1.1" id="Layer_1" xmlns="http://www.w3.org/2000/svg" xmlns:xlink="http://www.w3.org/1999/xlink" x="0px" y="0px"
	 viewBox="0 0 34 34" style="enable-background:new 0 0 34 34;" xml:space="preserve">
<style type="text/css">
	.st0{fill:#FF716D;}
</style>
<g>
	<path d="M20.3,29.5c2.5-0.5,4.4-1.4,5.8-2.8c1.4-1.4,2.1-3,2.1-4.9c0-2.9-1.4-5-4.3-6.1c-1.5,4.4-3.7,7.8-6.5,10.4
		c-2.8,2.6-5.7,3.8-8.5,3.8c-1.8,0-3.2-0.5-4.1-1.6c-1-1.1-1.5-2.5-1.5-4.4c0-2.3,0.8-4.4,2.3-6.2c1.5-1.8,3.6-3.2,6.2-4.1v-5H4.5
		V6.6h7.3V2.3h2.5v4.3h15.2v2.2H14.3v4.4c1.5-0.3,3-0.4,4.5-0.4c3.7,0,6.6,0.8,8.7,2.5c2.1,1.6,3.2,3.9,3.2,6.7
		c0,2.5-0.9,4.6-2.6,6.4c-1.7,1.7-4.1,2.9-7.2,3.5L20.3,29.5z M11.8,16.3c-1.9,0.8-3.3,1.8-4.4,3.1c-1.1,1.3-1.6,2.8-1.6,4.4
		c0,1.3,0.3,2.2,0.9,2.9c0.6,0.7,1.4,1,2.5,1c0.9,0,1.7-0.2,2.6-0.5V16.3z M21.7,15.2C20.8,15,19.8,15,18.8,15
		c-1.6,0-3.1,0.2-4.5,0.5v10.3c1.5-1.1,2.9-2.5,4.2-4.4C19.8,19.6,20.8,17.5,21.7,15.2z"/>
</g>
</svg>
