<?xml version="1.0" encoding="utf-8"?>
<!-- Generator: Adobe Illustrator 21.1.0, SVG Export Plug-In . SVG Version: 6.00 Build 0)  -->
<svg version="1.1" id="Layer_1" xmlns="http://www.w3.org/2000/svg" xmlns:xlink="http://www.w3.org/1999/xlink" x="0px" y="0px"
	 viewBox="0 0 34 34" style="enable-background:new 0 0 34 34;" xml:space="preserve">
<style type="text/css">
	.st0{fill:#FF716D;}
</style>
<g>
	<path d="M23.2,12.4c-0.1,0.4-0.2,0.9-0.3,1.3c6,1.1,8.2,4.8,8.2,8.8c0,5.4-4.6,8.7-13.1,9.6c-0.1-0.5-0.6-1.5-0.9-2
		c7-0.7,11.6-3.1,11.6-7.5v-0.2c-0.2-3.9-2.8-5.9-6.5-6.5c-1.5,3.8-3.9,7.4-6.8,10c0.2,0.7,0.5,1.3,0.9,1.8l-2,1.3
		c-0.3-0.5-0.6-1.1-0.8-1.7c-2.7,2-4.9,2.5-6.4,2.5c-2.7,0-4.1-2-4.1-4.5c0-4.7,3.9-8.4,8.8-10.4c-0.1-1.8-0.1-3.7,0-5.7
		c-5.7,0-6.4,0-7.5-0.1L4.1,6.8c1.7,0.1,4.7,0.1,7.6,0.1c0-1.6,0.1-3.5,0.2-5.1l3.4,0.2c0,0.3-0.4,0.6-0.9,0.7
		c-0.1,1.3-0.2,2.8-0.3,4.1c3.7-0.1,10.2-0.5,13.6-1.4l0.3,2.3c-3.6,0.9-10.2,1.2-14,1.3C14,10.8,14,12.5,14,14.1
		c2.4-0.7,4.5-0.8,5.1-0.8c0.5,0,1,0,1.4,0c0.1-0.5,0.2-1.1,0.3-1.6L23.2,12.4z M12.8,25.1c-0.5-2.1-0.8-4.8-1-8
		c-3.7,1.6-6.6,4.5-6.6,7.8c0,2,1.1,2.7,2.3,2.6C9.2,27.5,11,26.6,12.8,25.1z M19.8,15.5c-0.5,0-3.2-0.1-5.7,0.8
		c0.1,2.8,0.3,5.1,0.8,7C16.8,21.3,18.7,18.5,19.8,15.5z"/>
</g>
</svg>
