<?xml version="1.0" encoding="utf-8"?>
<!-- Generator: Adobe Illustrator 21.1.0, SVG Export Plug-In . SVG Version: 6.00 Build 0)  -->
<svg version="1.1" id="Layer_1" xmlns="http://www.w3.org/2000/svg" xmlns:xlink="http://www.w3.org/1999/xlink" x="0px" y="0px"
	 viewBox="0 0 34 34" style="enable-background:new 0 0 34 34;" xml:space="preserve">
<style type="text/css">
	.st0{fill:#FF716D;}
</style>
<g>
	<path class="st0" d="M31.3,31.1H19.8v-1.4c1-0.1,1.9-0.2,2.5-0.4s1-0.4,1-0.7c0-0.1,0-0.3,0-0.4s-0.1-0.3-0.1-0.4l-2.3-6.2h-9.7
		c-0.4,0.9-0.7,1.7-0.9,2.4c-0.2,0.7-0.4,1.3-0.6,1.9c-0.2,0.6-0.3,1-0.4,1.4c-0.1,0.4-0.1,0.6-0.1,0.9c0,0.5,0.4,0.9,1.2,1.2
		s1.7,0.5,2.8,0.5v1.4H2.7v-1.4c0.3,0,0.8-0.1,1.3-0.2s0.9-0.3,1.2-0.5c0.5-0.4,0.9-0.7,1.2-1.1c0.3-0.4,0.6-0.9,0.8-1.6
		c1.4-3.5,2.9-7.4,4.6-11.7s3.2-8.2,4.5-11.6H18l9.2,23.9c0.2,0.5,0.4,0.9,0.7,1.2c0.2,0.3,0.6,0.6,1,0.9c0.3,0.2,0.7,0.3,1.2,0.5
		c0.5,0.1,0.9,0.2,1.2,0.2V31.1z M20.1,19.7L15.9,9l-4.1,10.8H20.1z"/>
</g>
</svg>
