<?xml version="1.0" encoding="utf-8"?>
<!-- Generator: Adobe Illustrator 21.1.0, SVG Export Plug-In . SVG Version: 6.00 Build 0)  -->
<svg version="1.1" id="Layer_1" xmlns="http://www.w3.org/2000/svg" xmlns:xlink="http://www.w3.org/1999/xlink" x="0px" y="0px"
	 viewBox="0 0 34 34" style="enable-background:new 0 0 34 34;" xml:space="preserve">
<style type="text/css">
	.st0{fill:#FF716D;}
</style>
<g>
	<path d="M20.9,21.7H10.7l-1.8,4.2c-0.4,1-0.7,1.8-0.7,2.3c0,0.4,0.2,0.8,0.6,1.1c0.4,0.3,1.2,0.5,2.5,0.6v0.7H2.9v-0.7
		c1.1-0.2,1.8-0.4,2.1-0.8c0.7-0.6,1.4-1.9,2.2-3.8l9.3-21.8h0.7l9.2,22c0.7,1.8,1.4,2.9,2,3.4s1.4,0.8,2.5,0.9v0.7H20.6v-0.7
		c1.1-0.1,1.8-0.2,2.1-0.5s0.6-0.7,0.6-1.1c0-0.6-0.3-1.5-0.8-2.7L20.9,21.7z M20.4,20.2L15.9,9.5l-4.6,10.7H20.4z"/>
</g>
</svg>
