<?xml version="1.0" encoding="utf-8"?>
<!-- Generator: Adobe Illustrator 21.1.0, SVG Export Plug-In . SVG Version: 6.00 Build 0)  -->
<svg version="1.1" id="Layer_1" xmlns="http://www.w3.org/2000/svg" xmlns:xlink="http://www.w3.org/1999/xlink" x="0px" y="0px"
	 viewBox="0 0 34 34" style="enable-background:new 0 0 34 34;" xml:space="preserve">
<style type="text/css">
	.st0{fill:#FF716D;}
</style>
<g>
	<path class="st0" d="M10.9,20.7c-0.4,1-2.6,7.1-2.8,7.9c0,0.3-0.1,0.7-0.1,0.9c0,0.6,0.5,0.9,1.4,0.9h1.9c0.3,0,0.4,0.1,0.4,0.3
		v0.9c0,0.3-0.1,0.4-0.3,0.4c-0.6,0-2.2-0.1-4.6-0.1c-2.9,0-3.8,0.1-4.4,0.1c-0.2,0-0.3-0.1-0.3-0.3v-1c0-0.2,0.2-0.3,0.3-0.3h1.4
		c1.2,0,1.8-0.6,2.3-1.8c0.3-0.6,3.2-8,4.4-11.3c0.3-0.8,3.5-9.4,3.9-10.5c0.1-0.4,0.3-0.9,0-1.4c-0.1-0.2-0.3-0.4-0.3-0.5
		c0-0.1,0.1-0.3,0.4-0.4c1.1-0.2,2.9-1.4,3.3-2c0.2-0.2,0.3-0.4,0.5-0.4c0.2,0,0.3,0.2,0.4,0.7c0.8,2.5,3.9,11.5,4.6,14
		c0.9,3.1,3.5,10.6,4.1,11.7c0.7,1.3,1.7,1.8,2.7,1.8h1.3c0.2,0,0.3,0.1,0.3,0.3v1c0,0.2-0.1,0.3-0.4,0.3c-0.7,0-1.6-0.1-4.8-0.1
		c-3.3,0-4.7,0.1-5.6,0.1c-0.2,0-0.3-0.1-0.3-0.4v-0.9c0-0.2,0.1-0.3,0.4-0.3h1c1.1,0,1.5-0.4,1.2-1.5c-0.3-1.4-2-6.6-2.5-8.2H10.9z
		 M20.3,19.2C19.9,18,16.7,8,16.5,7.4c-0.1-0.3-0.2-0.6-0.3-0.6c-0.2,0-0.3,0.3-0.4,0.6c-0.2,0.5-4,10.8-4.3,11.8H20.3z"/>
</g>
</svg>
