<?xml version="1.0" encoding="utf-8"?>
<!-- Generator: Adobe Illustrator 21.1.0, SVG Export Plug-In . SVG Version: 6.00 Build 0)  -->
<svg version="1.1" id="Layer_1" xmlns="http://www.w3.org/2000/svg" xmlns:xlink="http://www.w3.org/1999/xlink" x="0px" y="0px"
	 viewBox="0 0 34 34" style="enable-background:new 0 0 34 34;" xml:space="preserve">
<style type="text/css">
	.st0{fill:#FF716D;}
</style>
<g>
	<path d="M23.4,29.8c-2.8,1.5-5.2,1.6-6.4,1.6c-0.5,0-0.9,0-1.5-0.1l0.1-0.3c4.1-0.5,7.5-2.8,8.5-4.1c1.7-2,2-3.7,2-5.6
		c0-3.4-1.7-4.5-4-5.2c-1,2.1-2.7,4.6-3.8,6.1c-0.3,0.4-1.9,2.2-2.2,2.6c0,0.2,0.4,1.3,0.5,1.6c0.1,0.2,0.2,0.4,0.2,0.8
		c0,0.7-0.5,1.1-0.9,1.1c-0.9,0-1.4-1.1-1.8-2.1c-4.1,3.3-7,3.7-7.2,3.7c-1.2,0-1.8-1.9-1.8-3.3c0-3.5,2.7-8.3,8.1-10.3
		c0.1-0.5,0.1-0.6,0.4-2.2c0.3-1.6,0.4-1.8,0.5-2.4c-0.6,0.1-1.2,0.1-2.2,0.1c-2.1,0-2.8-0.3-3.5-1.3c-0.3-0.4-0.7-1-0.8-2H8
		c1.3,1.2,1.9,1.8,4.6,1.8c0.9,0,1.4-0.1,2-0.2c0.8-2.7,0.9-4.2,0.9-4.4c0-1.2-0.9-2.2-1.5-2.9l0.1-0.1c0.9,0.2,1.9,0.4,3,1.3
		c0.4,0.3,1.5,1.1,1.5,1.6c0,0.3-0.2,0.5-0.4,0.9c-0.5,0.7-0.9,1.4-1.5,3.6c2-0.2,2.4-0.4,5.8-2c0.2-0.1,0.4-0.1,0.5-0.1
		c1,0,1.8,0.6,1.8,1.1c0,0.7-0.9,0.9-3.3,1.6c-2.5,0.7-3.8,1.1-5.3,1.1c0,0.2-0.1,0.4-0.5,2.2c-0.1,0.3-0.2,1.5-0.3,1.9
		c1.2-0.4,3-0.7,4.4-0.7c0.1-0.6,0.1-0.8-0.1-1.6h0.3c0.5,0.3,0.8,0.5,1.8,1.5c2.9,0.4,7,2.1,7,7.2C28.8,25.3,27.4,27.8,23.4,29.8z
		 M13.2,17.6c-0.9,0.4-1.8,0.8-2.9,1.9c-1.6,1.6-2.9,3.8-2.9,5.3c0,1.5,0.8,2.3,1.6,2.3c0.7,0,2.8-0.5,4.6-2.5
		C13.2,22,13.2,20.8,13.2,17.6z M15.1,16.9C15,17.5,15,18,15,19.1c0,2.3,0.3,3.2,0.5,3.9c1.6-1.8,3.3-4.5,4-7
		C18.4,16,17.1,16.2,15.1,16.9z"/>
</g>
</svg>
