<?xml version="1.0" encoding="utf-8"?>
<!-- Generator: Adobe Illustrator 21.1.0, SVG Export Plug-In . SVG Version: 6.00 Build 0)  -->
<svg version="1.1" id="Layer_1" xmlns="http://www.w3.org/2000/svg" xmlns:xlink="http://www.w3.org/1999/xlink" x="0px" y="0px"
	 viewBox="0 0 34 34" style="enable-background:new 0 0 34 34;" xml:space="preserve">
<style type="text/css">
	.st0{fill:#FF716D;}
</style>
<g>
	<path d="M8.9,30.1c-1.8,0-3.2-0.5-4.1-1.6c-1-1.1-1.5-2.5-1.5-4.4c0-2.3,0.7-4.3,2.2-6.1c1.5-1.8,3.5-3.1,6-4
		c0.2-0.1,0.3-0.2,0.3-0.4V9.1c0-0.2-0.1-0.3-0.3-0.3H5.6c-0.3,0-0.5-0.1-0.8-0.3C4.6,8.3,4.5,8,4.5,7.7S4.6,7.2,4.8,7
		c0.2-0.2,0.5-0.3,0.8-0.3h5.9c0.2,0,0.3-0.1,0.3-0.3V3.6c0-0.3,0.1-0.6,0.4-0.9c0.2-0.2,0.5-0.4,0.9-0.4s0.6,0.1,0.9,0.4
		s0.4,0.5,0.4,0.9v2.8c0,0.2,0.1,0.3,0.3,0.3h13.8c0.3,0,0.5,0.1,0.8,0.3c0.2,0.2,0.3,0.5,0.3,0.8s-0.1,0.5-0.3,0.8
		c-0.2,0.2-0.5,0.3-0.8,0.3H14.6c-0.2,0-0.3,0.1-0.3,0.3v3.8c0,0.2,0.1,0.3,0.3,0.2c1.4-0.2,2.8-0.4,4.2-0.4c3.7,0,6.6,0.8,8.7,2.5
		c2.1,1.6,3.2,3.9,3.2,6.7c0,2.3-0.8,4.4-2.3,6.1c-1.5,1.7-3.7,2.9-6.4,3.6c-0.3,0.1-0.6,0-0.9-0.1c-0.3-0.2-0.5-0.4-0.5-0.7
		c-0.1-0.3-0.1-0.6,0.1-0.8c0.2-0.3,0.4-0.5,0.7-0.5c2.2-0.6,3.8-1.5,5-2.8s1.8-2.8,1.8-4.5c0-2.8-1.3-4.8-4-6
		c-0.1-0.1-0.2,0-0.3,0.2c-1.5,4.3-3.7,7.7-6.5,10.2S11.7,30.1,8.9,30.1z M11.5,16.4c-1.8,0.8-3.2,1.8-4.2,3.1s-1.5,2.7-1.5,4.3
		c0,1.3,0.3,2.2,0.9,2.9c0.6,0.7,1.4,1,2.5,1c0.7,0,1.5-0.2,2.4-0.5c0.2-0.1,0.2-0.2,0.2-0.4V16.7c0-0.1,0-0.1-0.1-0.2
		C11.7,16.4,11.6,16.4,11.5,16.4z M18.8,15.1c-1.4,0-2.8,0.1-4.2,0.4c-0.2,0-0.3,0.2-0.3,0.3v9.8c0,0.1,0,0.1,0.1,0.2
		c0.1,0,0.1,0,0.2,0c3.1-2.4,5.5-5.7,7-10.2c0-0.1,0-0.1,0-0.2c0-0.1-0.1-0.1-0.2-0.1C20.5,15.1,19.6,15.1,18.8,15.1z"/>
</g>
</svg>
