<?xml version="1.0" encoding="utf-8"?>
<!-- Generator: Adobe Illustrator 21.1.0, SVG Export Plug-In . SVG Version: 6.00 Build 0)  -->
<svg version="1.1" id="Layer_1" xmlns="http://www.w3.org/2000/svg" xmlns:xlink="http://www.w3.org/1999/xlink" x="0px" y="0px"
	 viewBox="0 0 34 34" style="enable-background:new 0 0 34 34;" xml:space="preserve">
<style type="text/css">
	.st0{fill:#FF716D;}
</style>
<g>
	<path d="M22.9,5.3c1.6,0.1,3.6,0.4,3.6,1.4c0,1-2.6,1.5-5.3,2c-2.2,0.4-5.2,0.9-7.5,1.2c-0.1,1.4-0.3,3.2-0.3,5.2
		c3.1-1,5.1-1,6.8-1c0-0.6-0.2-1.1-0.4-1.5l0.4-0.3c0.9,0.6,1.2,1.3,1.4,1.9c5.6,0.6,9.2,3.7,9.2,8.4c0,5-4.4,8.5-14.5,9.4l-0.2-0.8
		c8.4-1.2,12.2-4.4,12.2-8.8c0-3.8-2.4-6.4-6.7-7.1v0.2c0,1.1-2,5.7-6.2,9.6c0.6,0.9,1.1,1.4,1.1,2.1c0,0.4-0.2,1.3-0.9,1.3
		c-0.4,0-1.2-0.5-1.9-1.8c-2.1,1.6-4.6,2.8-7,2.8c-1.7,0-3.6-1-3.6-3.5c0-3.8,3-7.8,8.6-10.1c0-2,0.1-3.9,0.1-5.7
		c-1,0-1.9,0.1-2.8,0.1c-2.8,0-3.9-1-4.7-2.4l0.5-0.5c0.9,1,2.3,1.3,4.1,1.3c0.8,0,2-0.1,2.9-0.1c0-0.9,0.1-2.3,0.1-3.2
		c0-1.1-0.2-1.9-1.8-1.9c-0.2,0-0.4,0-0.6,0L9.4,3.2C9.8,2.5,10.5,2,11.5,2c1.8,0,3.6,0.7,3.6,1.8c0,0.5-0.6,0.9-0.8,1.7
		c-0.1,0.6-0.3,1.5-0.4,2.5c2-0.2,8.4-1.1,8.8-2.7L22.9,5.3z M7.4,27.4c1.7,0,3.6-1,5.4-2.4c-1.1-2.8-1.1-6-1.1-8
		c-4.3,2.2-6.5,5-6.5,8.4C5.2,26.7,5.7,27.4,7.4,27.4z M13.4,16.2c0,1.7,0,4.7,1.1,7.3c2.8-2.4,5-6,5.6-8.5
		C18.6,15.1,16.2,15.1,13.4,16.2z"/>
</g>
</svg>
