<?xml version="1.0" encoding="utf-8"?>
<!-- Generator: Adobe Illustrator 21.1.0, SVG Export Plug-In . SVG Version: 6.00 Build 0)  -->
<svg version="1.1" id="Layer_1" xmlns="http://www.w3.org/2000/svg" xmlns:xlink="http://www.w3.org/1999/xlink" x="0px" y="0px"
	 viewBox="0 0 34 34" style="enable-background:new 0 0 34 34;" xml:space="preserve">
<style type="text/css">
	.st0{fill:#FF716D;}
</style>
<g>
	<path class="st0" d="M13.1,13.4c0.1-1.1,0.3-2.5,0.4-3.8c-0.6,0.1-1.4,0.3-1.9,0.4c-0.9,0.2-1.4,0.1-2-0.3C9,9.4,8.3,8.8,7.9,8.3
		c-0.2-0.2-0.4-0.6-0.6-1C7.4,7.1,7.6,7,7.8,7c0.7,0.7,1.7,1.2,2.9,1.3c1.1,0,2-0.1,3.1-0.3c0.1-1.2,0.2-2.1,0.2-2.7
		c0-0.5,0-1-0.3-1.3c-0.2-0.2-0.7-0.4-1.2-0.4c-0.1-0.1-0.2-0.3-0.1-0.5c0.5-0.2,1.2-0.4,1.7-0.4s1.6,0.3,2.2,0.9
		c0.4,0.4,0.3,0.7,0,1.6c-0.2,0.6-0.5,1.7-0.7,2.5c1.4-0.4,2.5-0.8,3.4-1.4c0.4-0.2,0.9-0.4,1.4-0.4c0.4-0.1,1.5-0.2,1.9-0.1
		c0.4,0.1,0.5,0.2,0.6,0.5c0.1,0.4-0.1,0.7-0.5,1c-0.9,0.5-4.6,1.6-7,2.1c-0.2,0.9-0.4,2-0.5,3.1c0,0.4-0.1,0.9-0.1,1.4
		c1.6-0.5,3.4-0.8,5-0.9c0-1-0.3-1.6-0.9-2.3c0.1-0.2,0.2-0.4,0.4-0.4c0.9,0.4,1.8,1.1,2.3,1.9c0.2,0.3,0.3,0.5,0.2,1
		c3.1,0.5,5.8,2.4,6.9,5c1.3,3,0.8,6.9-1.5,9.5c-2,2.2-5.4,3.9-10.1,3.9C17,31.3,16.9,31,17,30.9c2.4-0.3,5.5-1.4,7.4-3.3
		c2.5-2.4,3.4-6.6,1.8-9.8c-0.7-1.5-2.4-3.2-4.8-3.7c-1.1,3.1-3.9,7.4-6.1,10.2c0.2,0.8,0.5,1.4,0.7,2.1c0.1,0.4,0.1,0.7-0.2,1
		c-0.3,0.2-0.7,0.2-1,0c-0.4-0.2-0.8-0.5-1.1-0.9c-0.1-0.1-0.2-0.2-0.2-0.4c-1.4,1.3-3.4,2.4-5.4,2.6C7,28.8,6.4,28.4,6,27.7
		c-0.2-0.5-0.5-0.7-0.9-1.5c-0.7-1.1-0.5-2.8,0.1-4.2c1.6-3.7,5.3-6.4,7.9-7.6L13.1,13.4z M9.3,26.5c1.1-0.3,2.4-1.2,3.7-2.2
		c-0.3-2.4-0.2-5.7-0.1-8.3c-2.8,1.6-5.5,4.7-6.2,7.3c-0.3,1.1-0.2,2,0.3,2.5C7.5,26.5,8.3,26.7,9.3,26.5z M14.6,15.1
		c-0.1,2.4,0,5.2,0.2,7.2c2.1-2.5,4.2-6.1,4.7-8.3C17.8,14,16.1,14.5,14.6,15.1z"/>
</g>
</svg>
