<?xml version="1.0" encoding="utf-8"?>
<!-- Generator: Adobe Illustrator 21.1.0, SVG Export Plug-In . SVG Version: 6.00 Build 0)  -->
<svg version="1.1" id="Layer_1" xmlns="http://www.w3.org/2000/svg" xmlns:xlink="http://www.w3.org/1999/xlink" x="0px" y="0px"
	 viewBox="0 0 34 34" style="enable-background:new 0 0 34 34;" xml:space="preserve">
<style type="text/css">
	.st0{fill:#FF716D;}
</style>
<g>
	<path d="M7.7,29.6c-2.8,0-4.2-1.7-4.2-5.2c0-4.5,2.8-7.8,8.4-10c0.1-1.5,0.2-3.4,0.4-5.6c-1.4,0.1-2.7,0.1-3.9,0.1
		c-1.2,0-2.3,0-3.2-0.1V5.8c0.9,0.4,2.4,0.6,4.6,0.6c0.9,0,1.9-0.1,2.8-0.1c0.1-1.4,0.3-2.8,0.5-4.1l2.9,0.4c-0.5,1.8-0.7,3-0.7,3.6
		c3.9-0.2,7.4-0.7,10.5-1.4l-0.4,2.9C20.8,8.2,17.3,8.5,15,8.6c-0.2,1.7-0.4,3.3-0.4,5c2.2-0.4,3.6-0.6,4.3-0.6h0.5
		c0-0.5,0-0.9,0-1.4s0-1-0.1-1.4l3.1,0.6L22,13.3c3.6,0.5,6.1,2,7.4,4.6c0.7,1.4,1,2.8,1,4.4v0.1c-0.1,4-2.4,6.8-6.9,8.4
		c-1.2,0.4-2.6,0.7-4.2,0.9l-1.5-2.6c6.5-0.7,9.8-3,9.8-6.8c0-3-1.7-5.1-5.1-6.4c-0.2-0.1-0.5-0.1-0.8-0.1
		c-0.7,4.3-2.9,7.8-6.7,10.6l1.2,2l-2.7,1.8l-0.9-2.5C10.7,29,9.1,29.6,7.7,29.6z M12.1,25.5c-0.2-1.5-0.4-3-0.4-4.5
		c0-1.5,0.1-2.8,0.2-4c-3.8,1.8-5.7,4.3-5.7,7.6c0,1.4,0.6,2.2,1.7,2.4C8.9,27.1,10.3,26.6,12.1,25.5z M19,15.6
		c-0.9,0-2.4,0.2-4.5,0.7c-0.1,1.4-0.2,2.7-0.2,3.9c0,1.3,0.1,2.4,0.3,3.4C17,21.8,18.5,19.2,19,15.6z"/>
</g>
</svg>
