<?xml version="1.0" encoding="utf-8"?>
<!-- Generator: Adobe Illustrator 21.1.0, SVG Export Plug-In . SVG Version: 6.00 Build 0)  -->
<svg version="1.1" id="Layer_1" xmlns="http://www.w3.org/2000/svg" xmlns:xlink="http://www.w3.org/1999/xlink" x="0px" y="0px"
	 viewBox="0 0 34 34" style="enable-background:new 0 0 34 34;" xml:space="preserve">
<style type="text/css">
	.st0{fill:#FF716D;}
</style>
<g>
	<path class="st0" d="M12.8,27.3c-2.4,1.5-4.2,2.3-5.2,2.3c-0.6,0-1.2-0.4-1.9-1.1c-0.2-0.2-0.4-0.7-0.6-1.6
		c-0.2-0.9-0.6-1.7-1.1-2.5c0-1.6,0.7-3.1,2.1-4.7c1.5-1.4,3.5-2.8,5.8-4.1c0.1-1.4,0.4-3.1,0.7-5.2c-1,0.3-2.2,0.5-3.5,0.5
		S7,10.7,6.5,10.3C6,9.9,5.6,9.5,5.4,8.9C5.2,8.4,5.1,8.1,5.1,8c0-0.5,0.2-0.8,0.6-0.9c0.8,1.4,2.2,2.1,4,2.1c1,0,2-0.1,3.2-0.4
		c0.1-0.6,0.1-1.2,0.2-1.8c0.1-0.6,0.1-1.2,0.1-1.6s-0.1-0.7-0.4-0.9s-0.6-0.4-1-0.6c-0.4-0.2-0.5-0.4-0.5-0.6
		c0-0.3,0.2-0.5,0.6-0.5s0.9,0.1,1.6,0.3c1.9,0.6,2.8,1.2,2.8,1.8c0,0.4-0.2,0.7-0.5,1.1C15.5,6.2,15.2,7,15,8.2
		c0.9-0.2,2.3-0.6,4-1.1c0.3,0,0.5-0.1,0.7-0.3c1-0.7,1.6-1,1.9-1c1.8,0,2.7,0.4,2.7,1.3c0,0.1-0.1,0.3-0.2,0.4
		c-0.4,0.5-3.5,1.3-9.4,2.3c-0.2,1.7-0.4,3.3-0.6,4.9c0.7-0.2,1.7-0.5,2.9-0.7c1.2-0.2,2-0.3,2.4-0.3h0.7c0-0.2,0.1-0.6,0.1-0.9
		c0-0.5-0.2-1.1-0.5-1.7c0-0.3,0.2-0.4,0.4-0.4c0.1,0,0.1,0,0.2,0c1.1,0.3,1.8,1.3,1.9,3L22.1,14c1.9,0,3.7,0.6,5.4,1.9
		c1.7,1.2,2.5,3,2.5,5.4c0,2.9-0.9,5.1-2.8,6.6c-1.8,1.6-4.2,2.7-7.1,3.2c-0.2,0-0.4,0.1-0.5,0.1c-0.5,0-0.7-0.2-0.8-0.6
		c0-0.3,0.2-0.5,0.6-0.6c5.3-1.5,7.9-4.5,7.9-8.9c0-3.4-1.9-5.1-5.8-5.3c-1.3,4.1-3.5,7.4-6.5,9.9c0.1,0.5,0.2,0.9,0.4,1.2
		c0.2,0.3,0.3,0.7,0.3,1.1c0,0.7-0.4,1.1-1.2,1.1c-0.2,0-0.5-0.1-0.9-0.4c-0.3-0.3-0.5-0.5-0.6-0.8C13,27.6,12.9,27.4,12.8,27.3z
		 M6.1,24.6c0,1.9,0.8,2.9,2.3,2.9c0.4,0,1.7-0.7,3.9-2.2C12,23,11.8,21.2,11.8,20v-2.3c-1.5,1-2.8,2-3.8,3.1
		C6.7,22.4,6.1,23.7,6.1,24.6z M14.4,23.7c2.3-2.1,4.1-4.8,5.3-8.2c-2.2,0-4.1,0.4-5.7,1.1v1.9C14,19.5,14.1,21.3,14.4,23.7z"/>
</g>
</svg>
